<?xml version="1.0" standalone="no"?>
<!DOCTYPE svg PUBLIC "-//W3C//DTD SVG 20010904//EN" "http://www.w3.org/TR/2001/REC-SVG-20010904/DTD/svg10.dtd">
<svg version="1.0" xmlns="http://www.w3.org/2000/svg"
        width="150.000000pt" height="50.000000pt" viewBox="0 0 300.000000 100.000000"
        preserveAspectRatio="xMidYMid meet">
        <metadata> Created by potrace 1.10, written by Peter Selinger 2001-2011 </metadata>
        <g transform="translate(0.000000,100.000000) scale(0.100000,-0.100000)"
                fill="#000000" stroke="none">
                <path d="M394 836 c-8 -21 3 -36 27 -36 15 0 20 6 17 22 -4 27 -35 37 -44 14z" />
                <path d="M553 804 c-3 -8 -1 -20 5 -26 16 -16 42 -2 42 22 0 24 -38 28 -47 4z" />
                <path
                        d="M245 794 c-15 -15 -15 -19 -1 -32 17 -17 46 -10 46 11 0 8 -6 20 -14
26 -11 9 -18 8 -31 -5z" />
                <path
                        d="M402 743 c2 -10 10 -18 18 -18 8 0 16 8 18 18 2 12 -3 17 -18 17 -15
0 -20 -5 -18 -17z" />
                <path
                        d="M531 726 c-9 -10 -8 -16 3 -25 10 -9 16 -8 25 3 9 10 8 16 -3 25 -10
9 -16 8 -25 -3z" />
                <path d="M684 715 c-9 -23 4 -47 23 -43 22 4 30 38 11 49 -19 13 -28 11 -34
-6z" />
                <path
                        d="M300 700 c0 -15 5 -20 18 -18 9 2 17 10 17 18 0 8 -8 16 -17 18 -13
2 -18 -3 -18 -18z" />
                <path
                        d="M124 675 c-8 -20 4 -35 27 -35 14 0 19 7 19 25 0 18 -5 25 -20 25
-11 0 -23 -7 -26 -15z" />
                <path
                        d="M622 643 c2 -10 10 -18 18 -18 8 0 16 8 18 18 2 12 -3 17 -18 17 -15
0 -20 -5 -18 -17z" />
                <path d="M215 630 c-4 -7 -3 -16 3 -22 14 -14 45 -2 40 15 -6 16 -34 21 -43 7z" />
                <path
                        d="M780 530 c-15 -15 -20 -33 -20 -73 0 -64 24 -97 71 -97 51 0 69 16
69 60 0 39 -1 40 -35 40 -24 0 -35 -5 -35 -15 0 -9 9 -15 21 -15 27 0 21 -34
-7 -38 -30 -4 -46 21 -42 69 4 51 31 75 53 46 10 -14 18 -16 31 -9 15 9 15 11
-5 31 -27 27 -75 27 -101 1z" />
                <path
                        d="M2760 535 c0 -9 -7 -18 -15 -21 -17 -7 -21 -34 -5 -34 6 0 10 -22 10
-48 0 -26 5 -53 12 -60 18 -18 88 -16 88 2 0 10 -9 14 -27 13 -27 -2 -28 1
-31 46 -3 45 -2 47 22 47 16 0 26 6 26 15 0 9 -9 15 -25 15 -18 0 -25 5 -25
20 0 11 -7 20 -15 20 -8 0 -15 -7 -15 -15z" />
                <path d="M74 525 c-8 -19 3 -35 26 -35 19 0 30 17 23 38 -6 17 -42 15 -49 -3z" />
                <path
                        d="M182 527 c-7 -8 -7 -18 -2 -27 8 -13 11 -13 25 1 14 13 14 17 2 27
-11 10 -17 9 -25 -1z" />
                <path
                        d="M974 488 c3 -13 6 -47 6 -75 0 -46 3 -53 20 -53 17 0 20 7 20 48 0
53 12 72 47 72 14 0 23 6 23 15 0 20 -39 19 -62 -2 -17 -15 -18 -15 -18 0 0
11 -8 17 -21 17 -17 0 -20 -4 -15 -22z" />
                <path
                        d="M1172 498 c-7 -7 -12 -16 -12 -20 0 -12 34 -10 47 3 13 13 33 4 33
-17 0 -9 -10 -14 -29 -14 -33 0 -61 -22 -61 -49 0 -25 20 -41 50 -41 14 0 31
5 38 12 9 9 12 9 12 0 0 -7 11 -12 25 -12 14 0 25 5 25 10 0 6 -4 10 -10 10
-5 0 -10 22 -10 49 0 32 -6 55 -16 65 -18 19 -75 21 -92 4z m68 -82 c0 -7 -7
-19 -15 -26 -19 -16 -41 1 -32 24 8 20 47 21 47 2z" />
                <path
                        d="M1340 435 c0 -68 2 -75 20 -75 18 0 20 7 20 59 0 33 5 63 10 66 6 4
10 -18 10 -59 0 -58 2 -66 19 -66 16 0 17 6 14 48 -3 33 0 53 11 67 14 19 15
15 16 -47 0 -59 2 -68 18 -68 16 0 18 7 14 63 -2 34 -5 68 -7 75 -5 14 -45 17
-45 2 0 -6 -8 -5 -19 2 -15 9 -23 9 -35 -1 -11 -9 -16 -10 -16 -2 0 6 -7 11
-15 11 -12 0 -15 -15 -15 -75z" />
                <path
                        d="M1567 492 c-23 -26 -22 -94 1 -115 28 -25 87 -22 107 6 15 21 14 22
-6 25 -11 2 -26 -4 -34 -14 -20 -29 -47 -1 -43 45 2 29 8 37 26 39 12 2 22 -1
22 -7 0 -6 9 -11 20 -11 26 0 26 26 1 40 -30 16 -76 12 -94 -8z" />
                <path
                        d="M1760 490 c-26 -26 -27 -90 -2 -113 25 -23 85 -22 105 1 23 26 22 94
-1 115 -25 23 -78 21 -102 -3z m78 -51 c4 -43 -19 -69 -43 -49 -15 13 -21 71
-8 84 4 4 16 6 28 4 15 -2 21 -12 23 -39z" />
                <path
                        d="M1940 435 c0 -67 2 -75 19 -75 16 0 20 9 23 58 5 73 0 92 -23 92 -17
0 -19 -8 -19 -75z" />
                <path
                        d="M1997 503 c-13 -12 -7 -22 16 -25 20 -3 22 -8 22 -61 0 -53 2 -57 23
-57 20 0 22 5 22 49 0 73 -13 101 -48 101 -16 0 -32 -3 -35 -7z" />
                <path
                        d="M2135 435 c0 -72 1 -75 24 -75 22 0 23 3 18 44 -7 50 10 83 37 73 12
-5 16 -20 16 -62 0 -48 2 -55 20 -55 18 0 20 7 20 63 0 36 -5 68 -12 75 -17
17 -48 15 -70 -5 -17 -15 -18 -15 -18 0 0 10 -8 17 -17 17 -16 0 -18 -10 -18
-75z" />
                <path
                        d="M2350 490 c-26 -26 -27 -90 -2 -113 26 -24 85 -22 107 3 16 18 17 20
1 20 -9 0 -25 -5 -35 -12 -22 -14 -51 3 -51 29 0 13 10 15 50 11 47 -5 50 -4
50 18 0 33 -34 64 -70 64 -17 0 -39 -9 -50 -20z m68 -12 c19 -19 14 -28 -18
-28 -16 0 -30 4 -30 8 0 9 21 32 30 32 3 0 11 -5 18 -12z" />
                <path
                        d="M2547 492 c-23 -26 -22 -94 1 -115 27 -24 78 -21 105 6 l22 22 -23 3
c-14 2 -29 -3 -36 -13 -7 -10 -18 -14 -29 -9 -14 5 -17 16 -15 48 2 34 7 42
26 44 12 2 22 -1 22 -7 0 -6 9 -11 20 -11 24 0 26 13 4 34 -21 22 -77 20 -97
-2z" />
                <path d="M207 414 c-14 -15 -6 -34 14 -34 14 0 19 5 17 17 -3 18 -20 27 -31
17z" />
                <path
                        d="M103 374 c-3 -8 2 -23 11 -32 15 -15 17 -15 33 0 13 14 14 20 3 32
-16 20 -39 20 -47 0z" />
                <path d="M603 334 c-7 -19 11 -39 26 -30 16 10 13 33 -4 40 -9 3 -18 -1 -22
-10z" />
                <path d="M283 323 c-18 -7 -16 -30 3 -37 21 -8 21 -8 27 8 7 17 -13 35 -30 29z" />
                <path d="M495 280 c-4 -7 -3 -16 3 -22 14 -14 45 -2 40 15 -6 16 -34 21 -43 7z" />
                <path d="M657 283 c-12 -12 -7 -41 8 -47 22 -8 49 23 34 40 -12 15 -31 18 -42
7z" />
                <path
                        d="M380 260 c0 -15 5 -20 18 -18 9 2 17 10 17 18 0 8 -8 16 -17 18 -13
2 -18 -3 -18 -18z" />
                <path d="M204 245 c-8 -19 3 -35 26 -35 19 0 30 17 23 38 -6 17 -42 15 -49 -3z" />
                <path
                        d="M523 203 c-17 -6 -16 -40 1 -46 8 -3 22 0 32 8 15 11 16 15 5 29 -14
17 -18 18 -38 9z" />
                <path d="M357 194 c-13 -13 -7 -42 10 -48 21 -8 36 6 31 30 -3 19 -29 30 -41
18z" />
        </g>
</svg>
